<svg xmlns="http://www.w3.org/2000/svg" version="1.1" xmlns:xlink="http://www.w3.org/1999/xlink" xmlns:svgjs="http://svgjs.dev/svgjs" width="128" height="128" viewBox="0 0 128 128"><g transform="matrix(0.8046875,0,0,0.8046875,12.514173216382972,12.360446011513154)"><svg viewBox="0 0 94 95" data-background-color="#facc15" preserveAspectRatio="xMidYMid meet" height="129" width="128" xmlns="http://www.w3.org/2000/svg" xmlns:xlink="http://www.w3.org/1999/xlink"><g id="tight-bounds" transform="matrix(1,0,0,1,-0.012934779999994817,-0.24049999999999727)"><svg viewBox="0 0 93.57137999999999 95.481" height="95.481" width="93.57137999999999"><g><svg viewBox="0 0 93.57137999999999 95.481" height="95.481" width="93.57137999999999"><g><svg viewBox="0 0 93.57137999999999 95.481" height="95.481" width="93.57137999999999"><g id="textblocktransform"><svg viewBox="0 0 93.57137999999999 95.481" height="95.481" width="93.57137999999999" id="textblock"><g><svg viewBox="0 0 93.57137999999999 95.481" height="95.481" width="93.57137999999999"><g><svg viewBox="0 0 93.57137999999999 95.481" height="95.481" width="93.57137999999999"><g><svg version="1.1" xmlns="http://www.w3.org/2000/svg" xmlns:xlink="http://www.w3.org/1999/xlink" x="0" y="0" viewBox="0 0 98 100" enable-background="new 0 0 98.476 100" xml:space="preserve" width="93.57137999999999" height="95.481" class="icon-icon-0" data-fill-palette-color="accent" id="icon-0"><path d="M69.577 53.883c0-11.218-9.094-20.312-20.308-20.312-11.22 0-20.314 9.094-20.314 20.312 0 6.595 3.156 15.074 8.032 20.962h24.564C66.42 68.958 69.577 60.478 69.577 53.883z" fill="#6b7280" data-fill-palette-color="accent"></path><polygon points="56.038,100 42.498,100 39.487,95.804 59.046,95.804 " fill="#6b7280" data-fill-palette-color="accent"></polygon><path d="M61.505 79.173c0 1.05-0.855 1.902-1.901 1.902H38.871c-1.05 0-1.902-0.853-1.902-1.902l0 0c0-1.047 0.851-1.9 1.902-1.9h20.733C60.65 77.273 61.505 78.126 61.505 79.173L61.505 79.173z" fill="#6b7280" data-fill-palette-color="accent"></path><path d="M61.657 85.358c0 1.05-0.855 1.901-1.907 1.901H39.018c-1.05 0-1.902-0.852-1.902-1.901l0 0c0-1.05 0.851-1.898 1.902-1.898H59.75C60.801 83.459 61.657 84.308 61.657 85.358L61.657 85.358z" fill="#6b7280" data-fill-palette-color="accent"></path><path d="M61.417 91.824c0 1.057-0.853 1.906-1.9 1.906H38.781c-1.051 0-1.898-0.85-1.898-1.906l0 0c0-1.047 0.848-1.897 1.898-1.897h20.736C60.565 89.924 61.417 90.775 61.417 91.824L61.417 91.824z" fill="#6b7280" data-fill-palette-color="accent"></path><polygon points="51.172,28.724 47.289,28.724 44.963,0 53.501,0 " fill="#6b7280" data-fill-palette-color="accent"></polygon><polygon points="27.984,41.001 26.043,44.362 0,32.018 4.27,24.624 " fill="#6b7280" data-fill-palette-color="accent"></polygon><polygon points="37.853,31.63 34.495,33.572 18.113,9.86 25.509,5.59 " fill="#6b7280" data-fill-palette-color="accent"></polygon><polygon points="70.499,41.394 72.437,44.755 98.476,32.41 94.208,25.016 " fill="#6b7280" data-fill-palette-color="accent"></polygon><polygon points="60.628,31.004 63.99,32.943 80.37,9.233 72.973,4.961 " fill="#6b7280" data-fill-palette-color="accent"></polygon></svg></g></svg></g></svg></g></svg></g></svg></g></svg></g><defs></defs></svg><rect width="93.57137999999999" height="95.481" fill="none" stroke="none" visibility="hidden"></rect></g></svg></g></svg>