<svg xmlns="http://www.w3.org/2000/svg" version="1.1" xmlns:xlink="http://www.w3.org/1999/xlink" xmlns:svgjs="http://svgjs.dev/svgjs" width="2000" height="489" viewBox="0 0 2000 489"><g transform="matrix(1,0,0,1,-1.2121212121212466,1.0742230083426705)"><svg viewBox="0 0 396 97" data-background-color="#facc15" preserveAspectRatio="xMidYMid meet" height="489" width="2000" xmlns="http://www.w3.org/2000/svg" xmlns:xlink="http://www.w3.org/1999/xlink"><g id="tight-bounds" transform="matrix(1,0,0,1,0.2400000000000091,-0.21308718161398588)"><svg viewBox="0 0 395.52 97.42617436322799" height="97.42617436322799" width="395.52"><g><svg viewBox="0 0 568.07539500717 139.93075567715454" height="97.42617436322799" width="395.52"><g><rect width="5.790219349057838" height="139.93075567715454" x="151.60753338309163" y="0" fill="#6b7280" opacity="1" stroke-width="0" stroke="transparent" fill-opacity="1" class="rect-r$-0" data-fill-palette-color="primary" rx="1%" id="r$-0" data-palette-color="#6b7280"></rect></g><g transform="matrix(1,0,0,1,172.55539500717,0.34808645690833373)"><svg viewBox="0 0 395.52 139.23458276333787" height="139.23458276333787" width="395.52"><g id="textblocktransform"><svg viewBox="0 0 395.52 139.23458276333787" height="139.23458276333787" width="395.52" id="textblock"><g><svg viewBox="0 0 395.52 139.23458276333787" height="139.23458276333787" width="395.52"><g transform="matrix(1,0,0,1,0,0)"><svg width="395.52" viewBox="2.2499999999999964 -34.45 219.3 73.65" height="139.23458276333787" data-palette-color="#6b7280"><svg></svg><svg></svg><g class="wordmark-text-0" data-fill-palette-color="primary" id="text-0"><path d="M3.8-34.45h4.55v34.45h-4.55zM22.4-34.45c2.8 0 5.227 0.44 7.28 1.32 2.047 0.887 3.713 2.587 5 5.1 1.28 2.52 1.92 6.063 1.92 10.63v0c0 6.5-1.267 11.023-3.8 13.57-2.533 2.553-5.75 3.83-9.65 3.83v0h-7.2v-34.45zM23.25-30.8h-2.75v27.2h2.95c1.667 0 3.107-0.367 4.32-1.1 1.22-0.733 2.207-2.11 2.96-4.13 0.747-2.013 1.12-4.87 1.12-8.57v0c0-3.767-0.39-6.627-1.17-8.58-0.787-1.947-1.787-3.237-3-3.87-1.22-0.633-2.697-0.95-4.43-0.95zM42.65-34.45h15.8l-0.5 3.65h-10.75v11.45h9.35v3.65h-9.35v12.05h11.45v3.65h-16zM84.55 0h-4.65l-2.05-8.75h-10.3l-2.05 8.75h-4.5l8.95-34.45h5.65zM72.7-30.65l-4.3 18.25h8.6z" fill="#6b7280" fill-rule="nonzero" stroke="none" stroke-width="1" stroke-linecap="butt" stroke-linejoin="miter" stroke-miterlimit="10" stroke-dasharray="" stroke-dashoffset="0" font-family="none" font-weight="none" font-size="none" text-anchor="none" style="mix-blend-mode: normal" data-fill-palette-color="primary" opacity="1"></path><path transform="translate(0,38.6)" d="M14.85-35c1.767 0 3.327 0.307 4.68 0.92 1.347 0.62 2.687 1.563 4.02 2.83v0l-2.5 2.55c-1.067-0.933-2.06-1.6-2.98-2-0.913-0.4-1.987-0.6-3.22-0.6v0c-2.3 0-4.177 1.067-5.63 3.2-1.447 2.133-2.17 5.75-2.17 10.85v0c0 3.567 0.277 6.373 0.83 8.42 0.547 2.053 1.363 3.513 2.45 4.38 1.08 0.867 2.453 1.3 4.12 1.3v0c1.8 0 3.45-0.5 4.95-1.5v0-10.7h-4.7l-0.5-3.7h9.6v16.6c-2.933 2.033-6.067 3.05-9.4 3.05v0c-8.1 0-12.15-5.95-12.15-17.85v0c0-3.9 0.567-7.183 1.7-9.85 1.133-2.667 2.65-4.65 4.55-5.95 1.9-1.3 4.017-1.95 6.35-1.95zM30.2-34.45h15.8l-0.5 3.65h-10.75v11.45h9.35v3.65h-9.35v12.05h11.45v3.65h-16zM72.2-34.45v34.45h-6.05l-10.6-29.35c0.2 2.333 0.36 4.417 0.48 6.25 0.113 1.833 0.17 4.133 0.17 6.9v0 16.2h-4.25v-34.45h6.05l10.6 29.4c-0.133-0.5-0.273-1.867-0.42-4.1-0.153-2.233-0.23-4.317-0.23-6.25v0-19.05zM79.8-34.45h15.8l-0.5 3.65h-10.75v11.45h9.35v3.65h-9.35v12.05h11.45v3.65h-16zM121.95 0h-5l-6.7-14.75c-0.233 0.033-0.583 0.05-1.05 0.05v0h-3.1v14.7h-4.55v-34.45h6.9c4.033 0 7.033 0.833 9 2.5 1.967 1.667 2.95 4.067 2.95 7.2v0c0 2.2-0.517 4.093-1.55 5.68-1.033 1.58-2.517 2.737-4.45 3.47v0zM108.8-18.2c2.4 0 4.133-0.527 5.2-1.58 1.067-1.047 1.6-2.703 1.6-4.97v0c0-2.1-0.55-3.643-1.65-4.63-1.1-0.98-2.95-1.47-5.55-1.47v0h-2.3v12.65zM146.8 0h-4.65l-2.05-8.75h-10.3l-2.05 8.75h-4.5l8.95-34.45h5.65zM134.95-30.65l-4.3 18.25h8.6zM147.75-34.45h20.55l-0.5 3.8h-7.65v30.65h-4.55v-30.65h-7.85zM183-35c3.8 0 6.767 1.473 8.9 4.42 2.133 2.953 3.2 7.413 3.2 13.38v0c0 5.9-1.067 10.34-3.2 13.32-2.133 2.987-5.1 4.48-8.9 4.48v0c-3.8 0-6.777-1.467-8.93-4.4-2.147-2.933-3.22-7.383-3.22-13.35v0c0-5.9 1.083-10.35 3.25-13.35 2.167-3 5.133-4.5 8.9-4.5zM183-31.3c-2.4 0-4.223 1.1-5.47 3.3-1.253 2.2-1.88 5.817-1.88 10.85v0c0 5 0.633 8.583 1.9 10.75 1.267 2.167 3.083 3.25 5.45 3.25v0c2.4 0 4.217-1.077 5.45-3.23 1.233-2.147 1.85-5.753 1.85-10.82v0c0-5.033-0.617-8.643-1.85-10.83-1.233-2.18-3.05-3.27-5.45-3.27zM221.55 0h-5l-6.7-14.75c-0.233 0.033-0.583 0.05-1.05 0.05v0h-3.1v14.7h-4.55v-34.45h6.9c4.033 0 7.033 0.833 9 2.5 1.967 1.667 2.95 4.067 2.95 7.2v0c0 2.2-0.517 4.093-1.55 5.68-1.033 1.58-2.517 2.737-4.45 3.47v0zM208.4-18.2c2.4 0 4.133-0.527 5.2-1.58 1.067-1.047 1.6-2.703 1.6-4.97v0c0-2.1-0.55-3.643-1.65-4.63-1.1-0.98-2.95-1.47-5.55-1.47v0h-2.3v12.65z" fill="#6b7280" fill-rule="nonzero" stroke="none" stroke-width="1" stroke-linecap="butt" stroke-linejoin="miter" stroke-miterlimit="10" stroke-dasharray="" stroke-dashoffset="0" font-family="none" font-weight="none" font-size="none" text-anchor="none" style="mix-blend-mode: normal" data-fill-palette-color="primary" opacity="1"></path></g></svg></g></svg></g></svg></g></svg></g><g transform="matrix(1,0,0,1,0,0.34808645690833373)"><svg viewBox="0 0 136.4498911080711 139.23458276333787" height="139.23458276333787" width="136.4498911080711"><g><svg version="1.1" xmlns="http://www.w3.org/2000/svg" xmlns:xlink="http://www.w3.org/1999/xlink" x="0" y="0" viewBox="0 0 98 100" enable-background="new 0 0 98.476 100" xml:space="preserve" width="136.4498911080711" height="139.23458276333787" class="icon-icon-0" data-fill-palette-color="accent" id="icon-0"><path d="M69.577 53.883c0-11.218-9.094-20.312-20.308-20.312-11.22 0-20.314 9.094-20.314 20.312 0 6.595 3.156 15.074 8.032 20.962h24.564C66.42 68.958 69.577 60.478 69.577 53.883z" fill="#6b7280" data-fill-palette-color="accent"></path><polygon points="56.038,100 42.498,100 39.487,95.804 59.046,95.804 " fill="#6b7280" data-fill-palette-color="accent"></polygon><path d="M61.505 79.173c0 1.05-0.855 1.902-1.901 1.902H38.871c-1.05 0-1.902-0.853-1.902-1.902l0 0c0-1.047 0.851-1.9 1.902-1.9h20.733C60.65 77.273 61.505 78.126 61.505 79.173L61.505 79.173z" fill="#6b7280" data-fill-palette-color="accent"></path><path d="M61.657 85.358c0 1.05-0.855 1.901-1.907 1.901H39.018c-1.05 0-1.902-0.852-1.902-1.901l0 0c0-1.05 0.851-1.898 1.902-1.898H59.75C60.801 83.459 61.657 84.308 61.657 85.358L61.657 85.358z" fill="#6b7280" data-fill-palette-color="accent"></path><path d="M61.417 91.824c0 1.057-0.853 1.906-1.9 1.906H38.781c-1.051 0-1.898-0.85-1.898-1.906l0 0c0-1.047 0.848-1.897 1.898-1.897h20.736C60.565 89.924 61.417 90.775 61.417 91.824L61.417 91.824z" fill="#6b7280" data-fill-palette-color="accent"></path><polygon points="51.172,28.724 47.289,28.724 44.963,0 53.501,0 " fill="#6b7280" data-fill-palette-color="accent"></polygon><polygon points="27.984,41.001 26.043,44.362 0,32.018 4.27,24.624 " fill="#6b7280" data-fill-palette-color="accent"></polygon><polygon points="37.853,31.63 34.495,33.572 18.113,9.86 25.509,5.59 " fill="#6b7280" data-fill-palette-color="accent"></polygon><polygon points="70.499,41.394 72.437,44.755 98.476,32.41 94.208,25.016 " fill="#6b7280" data-fill-palette-color="accent"></polygon><polygon points="60.628,31.004 63.99,32.943 80.37,9.233 72.973,4.961 " fill="#6b7280" data-fill-palette-color="accent"></polygon></svg></g></svg></g></svg></g><defs></defs></svg><rect width="395.52" height="97.42617436322799" fill="none" stroke="none" visibility="hidden"></rect></g></svg></g></svg>